<?xml version="1.0" encoding="utf-8"?>
<!-- Generator: Adobe Illustrator 25.4.1, SVG Export Plug-In . SVG Version: 6.00 Build 0)  -->
<svg version="1.1" id="Layer_1" xmlns="http://www.w3.org/2000/svg" xmlns:xlink="http://www.w3.org/1999/xlink" x="0px" y="0px"
	 viewBox="0 0 128 128" style="enable-background:new 0 0 128 128;" xml:space="preserve">
<style type="text/css">
	.st0{fill:#048C7F;}
	.st1{opacity:0.1;}
	.st2{opacity:0.59;}
	.st3{fill:none;stroke:#FFFFFF;stroke-width:1.1295;stroke-miterlimit:10;}
	.st4{fill:none;}
	.st5{fill:none;stroke:#FFFFFF;stroke-miterlimit:10;}
	.st6{fill:#FFFFFF;}
	.st7{fill:#EFDEF2;}
	.st8{fill:#F4F4F4;}
	.st9{fill:#231F20;stroke:#231F20;stroke-width:0.3544;stroke-miterlimit:10;}
	.st10{fill:none;stroke:#231F20;stroke-miterlimit:10;}
	.st11{fill:none;stroke:#231F20;stroke-width:1.8427;stroke-miterlimit:10;}
	.st12{fill:none;stroke:#231F20;stroke-width:0.8489;stroke-miterlimit:10;}
	.st13{fill:none;stroke:#0A0A0A;stroke-width:1.8427;stroke-miterlimit:10;}
	.st14{opacity:0.15;}
	.st15{fill:#EB1E26;}
	.st16{fill:#ED433A;}
	.st17{fill:#F27624;}
	.st18{fill:#F9B044;}
	.st19{fill:#F8EB34;}
	.st20{fill:#D6DE29;}
	.st21{fill:#282425;stroke:#FFFFFF;stroke-width:1.1014;stroke-miterlimit:10;}
	.st22{opacity:0.61;}
	.st23{opacity:0.28;}
	.st24{fill:#095449;}
	.st25{fill:#D3D3D3;}
	.st26{opacity:0.3;}
	.st27{fill:#FEFEFE;}
	.st28{fill:#ECECEC;}
	.st29{fill:#EE5748;}
	.st30{fill:#F5A79E;}
	.st31{fill:#F5A79F;}
	.st32{fill:#D7DEE2;}
	.st33{fill:#2BB15F;}
	.st34{fill:#AEBCC5;}
	.st35{fill:#207F45;}
	.st36{fill:#56A575;}
	.st37{opacity:0.34;}
	.st38{fill:#282425;stroke:#FFFFFF;stroke-width:0.6825;stroke-miterlimit:10;}
	.st39{opacity:0.45;}
	.st40{fill:#282425;stroke:#FFFFFF;stroke-width:0.6498;stroke-miterlimit:10;}
	.st41{fill:#282425;stroke:#FFFFFF;stroke-width:1.5045;stroke-miterlimit:10;}
	.st42{fill:none;stroke:#FFFFFF;stroke-width:0.6441;stroke-miterlimit:10;}
	.st43{fill:#282425;stroke:#FFFFFF;stroke-width:0.4233;stroke-miterlimit:10;}
	.st44{fill:none;stroke:#FFFFFF;stroke-width:1.2766;stroke-miterlimit:10;}
	.st45{fill:#282425;stroke:#FFFFFF;stroke-width:0.839;stroke-miterlimit:10;}
	.st46{fill:none;stroke:#FFFFFF;stroke-width:0.9671;stroke-miterlimit:10;}
	.st47{fill:#282425;stroke:#FFFFFF;stroke-width:0.6356;stroke-miterlimit:10;}
	.st48{fill:#16897F;}
	.st49{fill:#E7FFFB;}
	.st50{opacity:0.66;fill:none;stroke:#16897F;stroke-width:1.1162;stroke-miterlimit:10;stroke-dasharray:3.3485,4.4708;}
	.st51{opacity:0.66;fill:none;stroke:#16897F;stroke-width:0.8182;stroke-miterlimit:10;stroke-dasharray:2.4546,3.2773;}
	.st52{opacity:0.66;fill:none;stroke:#16897F;stroke-width:0.673;stroke-miterlimit:10;stroke-dasharray:2.0189,2.6956;}
	.st53{opacity:0.32;}
	.st54{fill:#231F20;}
	.st55{fill:url(#SVGID_00000036237831013697760490000008560830546260814222_);}
	.st56{fill:#64318A;}
	.st57{fill:#EA5B33;}
	.st58{fill:#E31587;}
	.st59{fill:#EF8E30;}
	.st60{fill:#88BF48;}
	.st61{fill:#2F348B;}
	.st62{fill:#23AAE7;}
	.st63{fill:url(#SVGID_00000078028931274737538280000009350696485886926769_);}
	.st64{fill:#FAEB34;}
	.st65{fill:#5E3817;}
	.st66{fill:#F4AA4C;}
	.st67{fill:#1A9C4E;}
	.st68{fill:#972363;}
	.st69{fill:#CCD1D7;}
	.st70{opacity:0.49;fill:#C9D0D4;enable-background:new    ;}
	.st71{fill:#929296;}
	.st72{opacity:0.49;fill:#A5AEB6;enable-background:new    ;}
	.st73{opacity:0.1;fill:#FFFFFF;enable-background:new    ;}
	.st74{opacity:0.2;fill:#FFFFFF;enable-background:new    ;}
	.st75{opacity:0.49;fill:#FFFFFF;enable-background:new    ;}
	.st76{fill:#EFEDED;}
	.st77{opacity:0.5;fill:#EFEDED;enable-background:new    ;}
	.st78{opacity:0.59;fill:#A5ABB2;enable-background:new    ;}
	.st79{fill:url(#SVGID_00000183935823172258125020000007113172399601154707_);}
	.st80{opacity:0.59;fill:#8D929C;enable-background:new    ;}
	.st81{fill:#B7B9BC;}
	.st82{opacity:0.66;fill:none;stroke:#16897F;stroke-miterlimit:10;stroke-dasharray:3,4.0055;}
	.st83{opacity:0.66;fill:none;stroke:#16897F;stroke-width:0.733;stroke-miterlimit:10;stroke-dasharray:2.1992,2.9363;}
	.st84{opacity:0.66;fill:none;stroke:#16897F;stroke-width:0.6029;stroke-miterlimit:10;stroke-dasharray:1.8088,2.4151;}
	.st85{fill:url(#SVGID_00000121961183722201707950000003329875986369005758_);}
	.st86{fill:url(#SVGID_00000055683206125288772090000005204638951406391719_);}
	.st87{fill:url(#SVGID_00000036967830154016329270000016133638742661344658_);}
	.st88{fill:url(#SVGID_00000116229873432961123900000001522946143880523425_);}
	.st89{fill:url(#SVGID_00000115516711819822326570000010815352178554582463_);}
	.st90{fill:url(#SVGID_00000082332658488131285810000014100550349355716517_);}
</style>
<g>
	<g>
		<g>
			<g>
				<g>
					<g>
						<path class="st15" d="M34.9,31.9c-6.8,5.9-11.7,13.9-13.8,23C20,60,19.8,65.4,20.7,70.6c0.7,4,2,7.7,3.8,11.3
							c1.4,2.7,3.4,6.6,0.3,8.9c-2.6,2-5.3,4-7.9,6c-2.5,1.9-4.4,1.5-6-1.2c-5.6-9.4-9.1-19.8-9.1-30.8c0-16.9,7.5-33.4,19.9-44.9
							c2-1.9,4.1-3.6,6.4-5.2C42.7,4.5,60.7,1.8,78,5.1c8.9,1.7,18,6.1,25,11.7c6.9,5.5,6.9,5.5,13.9,0.2c1.2-1,2.5-1.8,4.3-3.1
							c0.5,5.5,1,10.5,1.4,15.6c0.6,7.7,1.2,15.4,1.8,23.1c0.1,1.6,0.3,3-2.2,2.3c-10.1-2.8-20.2-5.5-30.4-8.4
							c-2.2-0.6-4.4-0.9-6.6-1.6c-0.5-0.2-1.4-0.5-1.3-1.2c0.1-0.7,1-1.3,1.6-1.7c0.7-0.6,1.4-1.1,2.1-1.7c1.5-1.1,3.1-2.1,4.6-3.2
							c1-0.7,2.7-1.9,2.3-3.4c-0.3-1.8-3-3.2-4.4-4.1c-1.8-1.3-3.8-2.4-5.8-3.4c-4-2-8.2-3.4-12.5-4.1c-2.7-0.5-5.5-0.7-8.3-0.7
							c-3.5,0.1-7.1,0.4-10.6,1.2C46.3,24.2,40.1,27.4,34.9,31.9z"/>
						<path class="st16" d="M32,95c0.3,0,0.6,0,0.9,0c2.8,0.1,5.1,1.8,7.3,3.4c1.7,1.3,4,2.7,4.2,5c0.2,2.3-1,4.4-1.9,6.4
							c-1,2.2-2,4.3-2.9,6.5c-0.8,1.7-2.2,2.1-4,1.2c-5.6-2.9-10.4-6.9-15.3-10.7c-1.6-1.2-0.5-3.3,0.6-4.5c1.6-1.7,3.4-3.4,5.3-4.8
							C27.8,96.3,29.8,95.2,32,95z"/>
						<path class="st17" d="M62.2,124.2c-1.1-0.1-2.3-0.2-3.4-0.3c-3.2-0.3-6.4-0.7-9.5-1.4c-1.3-0.3-2.4-0.8-2.7-2.2
							c-0.7-2.9,0.4-5.9,1.7-8.5c1.1-2.1,2.7-5.5,5.2-6.2c2.7-0.8,7.1,0.2,9.8,0.6c1.4,0.2,3,0.3,4.1,1.4c1.2,1.3,1.3,3.2,1.6,4.8
							c0.4,2.1,0.6,4.3,0.8,6.5c0.1,1.8,0.6,4.5-1.8,5C66.1,124.3,64.1,124.3,62.2,124.2z"/>
						<path class="st18" d="M75.4,110.2c-0.3-1.6-0.7-3.4,0-4.8c0.7-1.4,4-2.9,5.3-3.6c3-1.5,4.5-2.3,7.9-1.2c3,0.9,5.1,3.6,7,5.9
							c1.4,1.7,3.4,4,3.1,6.4c-0.2,1.6-1.7,2.2-3,2.9c-1.6,0.8-3.2,1.6-4.8,2.4c-2.3,1-4.7,2-7.1,2.8c-1.4,0.5-2.9,1.4-4.5,1.4
							c-2.1,0-2.5-2.1-2.7-3.7c-0.3-2.4-0.7-4.7-1-7.1C75.6,111.1,75.5,110.7,75.4,110.2z"/>
						<path class="st19" d="M105.3,83.1c4.5-1.4,8.5,2,12.2,4.1c2,1.2,2.9,2.7,1.7,5c-2.5,4.8-6,9-9.7,12.9c-1.3,1.4-3,2.1-4.6,0.7
							c-2.9-2.6-7.9-6.5-8.4-10.7c-0.1-1.1,0-2.2,0.6-3.3C98.7,88.7,101.8,84.2,105.3,83.1"/>
						<path class="st20" d="M126.2,69.6c0,2.2-0.6,4.6-0.9,6.5c-0.2,1.5-0.5,3.4-1.9,4.2c-1.2,0.6-2.5,0.2-3.7,0
							c-3.1-0.6-6.1-1.6-8.9-2.9c-2.5-1.1-3.6-3.3-3.6-6.1c0-1.5,0.1-3,0.4-4.4c0.2-1.4,0.4-3.2,1-4.5c1.1-2.4,5.2-0.5,6.9-0.1
							c2.4,0.7,4.9,1.3,7.2,2.2c1.1,0.4,2,0.8,2.7,1.8C125.9,67.2,126.2,68.4,126.2,69.6z"/>
						<path class="st41" d="M100.2,66.3l-18.8,7.1c-1.2,0.5-2.5-0.1-3-1.3l-1.3-3.6c-0.5-1.2,0.1-2.5,1.3-3l18.8-7.1
							c1.2-0.5,2.5,0.1,3,1.3l1.3,3.6C102,64.5,101.4,65.9,100.2,66.3z"/>
						<path class="st41" d="M37.6,42.3l16.6,20.1c0.3,0.4,0.2,0.9-0.1,1.2l-3,2.5c-0.4,0.3-0.9,0.2-1.2-0.1L33.3,45.8
							c-0.3-0.4-0.2-0.9,0.1-1.2l3-2.5C36.8,41.9,37.4,41.9,37.6,42.3z"/>
						<circle class="st41" cx="63.1" cy="75.2" r="9"/>
					</g>
				</g>
			</g>
		</g>
	</g>
</g>
</svg>
